<?xml version="1.0" standalone="no"?>
<!DOCTYPE svg PUBLIC "-//W3C//DTD SVG 20010904//EN"
 "http://www.w3.org/TR/2001/REC-SVG-20010904/DTD/svg10.dtd">
<svg version="1.0" xmlns="http://www.w3.org/2000/svg"
 width="700.000000pt" height="700.000000pt" viewBox="0 0 700.000000 700.000000"
 preserveAspectRatio="xMidYMid meet">
<metadata>
Created by potrace 1.11, written by Peter Selinger 2001-2013
</metadata>
<g transform="translate(0.000000,700.000000) scale(0.100000,-0.100000)"
fill="#000000" stroke="none">
<path d="M1934 6175 c-490 -77 -907 -346 -1189 -765 -68 -101 -162 -292 -204
-411 -33 -96 -77 -286 -86 -369 -3 -30 -8 -73 -10 -95 -6 -51 -7 -283 -1 -310
2 -11 7 -53 10 -94 4 -41 9 -77 11 -81 2 -3 6 -24 9 -47 4 -22 16 -72 27 -109
10 -38 22 -78 24 -89 5 -21 9 -31 50 -140 70 -183 219 -442 349 -610 17 -22
36 -47 43 -55 142 -184 422 -471 663 -682 138 -119 529 -438 761 -618 46 -36
109 -85 140 -110 32 -25 70 -54 85 -65 15 -11 50 -38 78 -60 28 -23 139 -108
246 -190 176 -135 327 -253 356 -280 6 -5 38 -34 72 -63 33 -29 76 -68 96 -88
l35 -35 72 68 c39 37 77 73 83 79 11 11 262 218 281 232 6 4 60 46 120 93 100
78 306 235 525 400 47 35 90 67 95 72 24 19 316 244 345 267 33 25 126 101
225 183 131 110 292 256 405 368 112 112 162 164 264 279 47 52 166 206 216
280 25 36 48 67 53 68 4 2 7 7 7 12 0 5 22 44 49 87 114 184 214 420 266 623
62 250 73 517 30 780 -68 425 -295 825 -620 1093 -143 118 -201 155 -370 236
-230 111 -436 158 -690 159 -346 1 -667 -113 -950 -337 -129 -102 -286 -272
-370 -398 -15 -24 -31 -43 -34 -43 -4 0 -15 13 -24 30 -10 16 -23 35 -30 42
-7 7 -35 42 -62 78 -75 97 -237 253 -351 336 -168 122 -400 227 -584 263 -30
6 -68 13 -85 17 -61 12 -350 12 -431 -1z"/>
</g>
</svg>
